<svg width="14" height="14" viewBox="0 0 14 14" fill="none" xmlns="http://www.w3.org/2000/svg">
<path d="M2.85242 3.99329L3.85657 9.929C4.03112 10.9608 4.11839 11.4767 4.42698 11.8326C5.25663 12.7897 8.43489 12.7897 9.26454 11.8326C9.57317 11.4767 9.6604 10.9608 9.83496 9.929L10.8391 3.99329" stroke="#461E10" stroke-width="1.14096" stroke-linecap="round"/>
<path d="M2.85242 3.99332L3.27616 3.01644C3.62352 2.21563 3.7972 1.81522 4.15939 1.5891C5.06615 1.02298 8.52594 0.96091 9.53215 1.5891C9.89435 1.81522 10.068 2.21563 10.4154 3.01644L10.8391 3.99332" stroke="#461E10" stroke-width="1.14096" stroke-linecap="round"/>
<path d="M2.28198 3.99329H11.4096" stroke="#461E10" stroke-width="1.14096" stroke-linecap="round"/>
<path d="M6.84579 9.6981C7.47592 9.6981 7.98675 9.05957 7.98675 8.2719C7.98675 7.48423 7.47592 6.8457 6.84579 6.8457C6.21566 6.8457 5.70483 7.48423 5.70483 8.2719C5.70483 9.05957 6.21566 9.6981 6.84579 9.6981Z" stroke="#461E10" stroke-width="1.14096" stroke-linecap="round"/>
</svg>
