<svg width="5" height="7" viewBox="0 0 5 7" fill="none" xmlns="http://www.w3.org/2000/svg">
<path d="M0.0455429 0.0440191C-0.0713321 0.160894 0.04491 0.578399 0.303035 0.972774C0.83616 1.7859 0.906158 2.75465 0.488658 3.53403C0.00178314 4.44403 1.20178 5.47591 3.27678 5.93216C4.19741 6.13403 4.29992 6.10215 3.9793 5.7159C3.68367 5.36028 3.70241 5.12214 4.06616 4.60151C4.36616 4.17401 4.4168 3.87089 4.20867 3.74214C4.03242 3.63339 3.96117 3.42464 4.05117 3.27902C4.14117 3.13339 4.0799 2.65903 3.9149 2.22465C3.64678 1.52028 3.48805 1.45464 2.45742 1.62214C1.71367 1.74214 1.37116 1.69715 1.49616 1.49402C1.72928 1.11652 0.351168 -0.262231 0.0455429 0.0440191Z" fill="#131313"/>
</svg>
